<svg xmlns="http://www.w3.org/2000/svg" viewBox="0 0 423.89 120.48"><defs><style>.cls-1{fill:#000f9f;}.cls-2{fill:#e1251b;}</style></defs><g id="Capa_2" data-name="Capa 2"><g id="Capa_1-2" data-name="Capa 1"><path class="cls-1" d="M362.2,43.53V54.76h7.08V53.09h-5V49.91h3.92V48.3h-3.92V45.19h5V43.53Zm-4,7.27a3.51,3.51,0,0,1-.71,1.24,3.11,3.11,0,0,1-1.11.78,3.86,3.86,0,0,1-1.48.28h-2.19V45.19h2.19a3.86,3.86,0,0,1,1.48.27,3.11,3.11,0,0,1,1.11.78,3.51,3.51,0,0,1,.71,1.24,5.64,5.64,0,0,1,0,3.32m2-3.93a5.15,5.15,0,0,0-2.95-2.93,6.38,6.38,0,0,0-2.32-.41h-4.29V54.76h4.29a6.38,6.38,0,0,0,2.32-.41,5.13,5.13,0,0,0,2.95-2.94,6.49,6.49,0,0,0,0-4.54m-18.5-3.34h-2.09V54.76h6.59V53h-4.5ZM332.5,46.8q.11-.25.21-.6c.07-.23.14-.48.21-.74.07.26.15.51.22.73l.21.59,1.36,3.74h-3.58ZM334,43.53h-2.13l-4.42,11.23h1.63a.67.67,0,0,0,.44-.15.69.69,0,0,0,.25-.33L330.6,52h4.65l.84,2.29a.78.78,0,0,0,.25.34.73.73,0,0,0,.45.14h1.61Zm-16.11,0h-1.09V54.76h1.84v-6.9c0-.13,0-.28,0-.45s0-.32,0-.49l5.87,7.48a.81.81,0,0,0,.73.36h1.08V43.53h-1.84v6.82c0,.15,0,.32,0,.49a4.91,4.91,0,0,0,0,.53l-5.9-7.51a1.38,1.38,0,0,0-.15-.17.72.72,0,0,0-.15-.11l-.16,0h-.24m-5.13,7.27a3.34,3.34,0,0,1-.7,1.24,3,3,0,0,1-1.11.78,3.86,3.86,0,0,1-1.48.28,3.92,3.92,0,0,1-1.49-.28,3.06,3.06,0,0,1-1.12-.78,3.51,3.51,0,0,1-.71-1.24,5.64,5.64,0,0,1,0-3.32,3.51,3.51,0,0,1,.71-1.24,3.08,3.08,0,0,1,1.12-.79,3.92,3.92,0,0,1,1.49-.27,3.86,3.86,0,0,1,1.48.27,3,3,0,0,1,1.11.79,3.34,3.34,0,0,1,.7,1.24,5.64,5.64,0,0,1,0,3.32m2-3.95a5.28,5.28,0,0,0-3-3,6,6,0,0,0-2.32-.44,6.24,6.24,0,0,0-2.33.43,5.24,5.24,0,0,0-3,3,6.17,6.17,0,0,0-.41,2.29,6.1,6.1,0,0,0,.41,2.29,5.3,5.3,0,0,0,1.16,1.82,5.36,5.36,0,0,0,1.8,1.2,6.5,6.5,0,0,0,4.65,0,5.22,5.22,0,0,0,1.79-1.2,5.3,5.3,0,0,0,1.16-1.82,6.1,6.1,0,0,0,.41-2.29,6.17,6.17,0,0,0-.41-2.29m-12.88-3.32h-2.1V54.76h2.1Zm-5.24,8.62a.91.91,0,0,0-.16.11,3.14,3.14,0,0,1-.52.4,3.47,3.47,0,0,1-.55.26,3.78,3.78,0,0,1-.64.14,4.53,4.53,0,0,1-.77,0,3.34,3.34,0,0,1-1.34-.27,3,3,0,0,1-1.07-.77,3.7,3.7,0,0,1-.73-1.24,4.91,4.91,0,0,1-.27-1.69,4.76,4.76,0,0,1,.27-1.65,3.87,3.87,0,0,1,.74-1.25,3.17,3.17,0,0,1,1.15-.78,3.61,3.61,0,0,1,1.45-.28,3.92,3.92,0,0,1,1.12.14,3.55,3.55,0,0,1,.72.3,4.49,4.49,0,0,1,.48.31.61.61,0,0,0,.36.14.48.48,0,0,0,.27-.07.65.65,0,0,0,.16-.17l.7-1a5.18,5.18,0,0,0-1.61-1.06,5.62,5.62,0,0,0-2.18-.4,6.06,6.06,0,0,0-2.34.43A5.16,5.16,0,0,0,290,45a5.33,5.33,0,0,0-1.19,1.81,6.46,6.46,0,0,0-.41,2.32,6.87,6.87,0,0,0,.37,2.31,5.14,5.14,0,0,0,1.09,1.82,4.9,4.9,0,0,0,1.7,1.18,5.57,5.57,0,0,0,2.25.43,5.76,5.76,0,0,0,2.39-.45,4.49,4.49,0,0,0,1.69-1.3l-.83-.89a.37.37,0,0,0-.29-.13.41.41,0,0,0-.19,0m-14.2-5.35q.1-.25.21-.6c.07-.23.14-.48.21-.74.08.26.15.51.22.73l.21.59,1.37,3.74h-3.58Zm1.5-3.27h-2.14l-4.41,11.23H279a.68.68,0,0,0,.45-.15.74.74,0,0,0,.24-.33l.84-2.29h4.65l.84,2.29a.78.78,0,0,0,.25.34.73.73,0,0,0,.45.14h1.62ZM265.68,41h-1.34V54.76h2.25V46.33c0-.17,0-.35,0-.55s0-.4,0-.6l7.17,9.14a1.08,1.08,0,0,0,.39.34,1.1,1.1,0,0,0,.51.1h1.32V41h-2.25v8.34c0,.19,0,.39,0,.6s0,.43.05.65l-7.2-9.18a2.2,2.2,0,0,0-.19-.21.68.68,0,0,0-.18-.13.46.46,0,0,0-.2-.05l-.29,0M253.37,46.8c.07-.17.13-.37.2-.6s.15-.48.22-.74c.07.26.14.51.22.73a5.54,5.54,0,0,0,.21.59l1.36,3.74H252Zm1.49-3.27h-2.14l-4.41,11.23h1.63a.67.67,0,0,0,.44-.15.77.77,0,0,0,.25-.33l.84-2.29h4.65l.84,2.29a.72.72,0,0,0,.7.48h1.61Zm-16.11,0h-1.09V54.76h1.84v-6.9c0-.13,0-.28,0-.45s0-.32,0-.49l5.87,7.48a.81.81,0,0,0,.73.36h1.08V43.53h-1.84v6.82c0,.15,0,.32,0,.49a5,5,0,0,0,0,.53l-5.9-7.51-.15-.17a.72.72,0,0,0-.15-.11l-.17,0h-.23m-3.62,0H233V54.76h2.09Zm-5.23,8.62-.17.11a3.56,3.56,0,0,1-.51.4,3.94,3.94,0,0,1-.55.26,4,4,0,0,1-.64.14,4.6,4.6,0,0,1-.77,0,3.34,3.34,0,0,1-1.34-.27,3.15,3.15,0,0,1-1.08-.77,3.68,3.68,0,0,1-.72-1.24,4.91,4.91,0,0,1-.27-1.69,4.76,4.76,0,0,1,.27-1.65,3.55,3.55,0,0,1,.74-1.25,3.22,3.22,0,0,1,1.14-.78,3.69,3.69,0,0,1,1.46-.28,3.8,3.8,0,0,1,1.11.14,3.43,3.43,0,0,1,.73.3,3.48,3.48,0,0,1,.47.31.66.66,0,0,0,.37.14.54.54,0,0,0,.27-.07.87.87,0,0,0,.16-.17l.69-1a5,5,0,0,0-1.6-1.06,5.63,5.63,0,0,0-2.19-.4,6.13,6.13,0,0,0-2.34.43,5.22,5.22,0,0,0-3,3,6.26,6.26,0,0,0-.42,2.32,6.87,6.87,0,0,0,.38,2.31,5.27,5.27,0,0,0,1.08,1.82,4.94,4.94,0,0,0,1.71,1.18,5.54,5.54,0,0,0,2.25.43,5.76,5.76,0,0,0,2.39-.45,4.39,4.39,0,0,0,1.68-1.3l-.82-.89a.38.38,0,0,0-.3-.13.37.37,0,0,0-.18,0m-10.06-8.62h-2.1V54.76h2.1Zm-11.07,0V54.76h2.1V50.18h4.2V48.51h-4.2V45.19h5V43.53Zm-4.68,6.39a4.25,4.25,0,0,1-.86,1.52,3.79,3.79,0,0,1-1.37,1,4.48,4.48,0,0,1-1.8.34,4.61,4.61,0,0,1-1.82-.34,3.79,3.79,0,0,1-1.37-1,4.27,4.27,0,0,1-.87-1.52,7,7,0,0,1,0-4.05,4.4,4.4,0,0,1,.87-1.53,3.79,3.79,0,0,1,1.37-1,4.61,4.61,0,0,1,1.82-.34,4.48,4.48,0,0,1,1.8.34,3.79,3.79,0,0,1,1.37,1,4.38,4.38,0,0,1,.86,1.53,7.22,7.22,0,0,1,0,4.05m2.41-4.82a6.39,6.39,0,0,0-3.61-3.69,7.39,7.39,0,0,0-2.83-.53,7.31,7.31,0,0,0-2.85.53,6.56,6.56,0,0,0-2.2,1.46,6.7,6.7,0,0,0-1.42,2.23,8.06,8.06,0,0,0,0,5.59A6.7,6.7,0,0,0,195,52.92a6.56,6.56,0,0,0,2.2,1.46,7.49,7.49,0,0,0,2.85.53,7.39,7.39,0,0,0,2.83-.53,6.46,6.46,0,0,0,2.2-1.46,6.67,6.67,0,0,0,1.41-2.23,8.06,8.06,0,0,0,0-5.59"/><path class="cls-1" d="M414.26,66h1.53a3.24,3.24,0,0,1,2.18.61,2.11,2.11,0,0,1,.71,1.69,3,3,0,0,1-.16,1,2,2,0,0,1-.51.82,2.39,2.39,0,0,1-.89.54,4,4,0,0,1-1.33.2h-1.53Zm1,7.5a1.42,1.42,0,0,1,.68.13,1.12,1.12,0,0,1,.42.46l2.73,4.77a1.47,1.47,0,0,0,1.38.72h3.45l-3.5-5.72a2.6,2.6,0,0,0-.58-.69,3.64,3.64,0,0,0-.71-.47,5.63,5.63,0,0,0,1.41-.78,5.05,5.05,0,0,0,1-1.08,4.83,4.83,0,0,0,.64-1.31A5.35,5.35,0,0,0,422.4,68,5.11,5.11,0,0,0,422,66a3.78,3.78,0,0,0-1.16-1.55,5.87,5.87,0,0,0-2.05-1,11.13,11.13,0,0,0-3-.37h-5.34V79.54h3.81V73.46Zm-10.83.06a4.55,4.55,0,0,1-.91,1.65,3.77,3.77,0,0,1-1.45,1,5,5,0,0,1-2,.36,5.12,5.12,0,0,1-2-.36,3.77,3.77,0,0,1-1.45-1,4.55,4.55,0,0,1-.91-1.65,8,8,0,0,1,0-4.4,4.55,4.55,0,0,1,.91-1.65,3.9,3.9,0,0,1,1.45-1,5.12,5.12,0,0,1,2-.36,5,5,0,0,1,2,.36,3.9,3.9,0,0,1,1.45,1,4.55,4.55,0,0,1,.91,1.65,7.72,7.72,0,0,1,0,4.4M408,68a7.85,7.85,0,0,0-1.73-2.66,8,8,0,0,0-2.69-1.78,9.69,9.69,0,0,0-7,0A7.77,7.77,0,0,0,392.16,68a9.17,9.17,0,0,0,0,6.63,7.8,7.8,0,0,0,4.44,4.45,9.84,9.84,0,0,0,7,0A7.84,7.84,0,0,0,408,74.63,9.15,9.15,0,0,0,408,68M378.44,63.1v3h4.62V79.54h3.81V66.13h4.63v-3Zm-9.79,13.17a2.77,2.77,0,0,1-1-.73,3.34,3.34,0,0,1-.64-1.16,5.27,5.27,0,0,1-.22-1.55V63.1H363v9.74a7.5,7.5,0,0,0,.49,2.77,6.17,6.17,0,0,0,1.39,2.18,6.32,6.32,0,0,0,2.23,1.42,8.79,8.79,0,0,0,5.9,0,6.36,6.36,0,0,0,2.22-1.42,6.19,6.19,0,0,0,1.4-2.18,7.5,7.5,0,0,0,.49-2.77V63.1h-3.81v9.74a5,5,0,0,1-.22,1.55,3.34,3.34,0,0,1-.64,1.16,2.86,2.86,0,0,1-1,.72,3.74,3.74,0,0,1-2.74,0M350.8,66.39c.14-.35.29-.77.45-1.24s.3-1,.45-1.56c.16.55.32,1.06.48,1.54l.42,1.23,1.84,5.5H349Zm3.29-6.94h-4.77l-7.78,20.09h3.64a1.6,1.6,0,0,0,1.52-1l1.18-3.5h7.64l1.19,3.5a1.45,1.45,0,0,0,.54.73,1.71,1.71,0,0,0,1,.28h3.61ZM325.77,63.1V79.54h10.58V76.61H329.6V72.69h5.17V69.87H329.6V66h6.75V63.1Zm-6,10.43a4.68,4.68,0,0,1-.91,1.66,4,4,0,0,1-1.44,1,5.07,5.07,0,0,1-2,.37h-2.55V66h2.55a5.07,5.07,0,0,1,2,.36,4,4,0,0,1,1.44,1,4.64,4.64,0,0,1,.91,1.67,7.12,7.12,0,0,1,.32,2.2,7.23,7.23,0,0,1-.32,2.21M323.33,68a7.74,7.74,0,0,0-1.73-2.6,8.16,8.16,0,0,0-2.7-1.72,9.47,9.47,0,0,0-3.49-.62H309V79.54h6.38a9.47,9.47,0,0,0,3.49-.62,8,8,0,0,0,2.7-1.71,7.68,7.68,0,0,0,1.73-2.61,9.12,9.12,0,0,0,0-6.56m-24.7,5.48a4.55,4.55,0,0,1-.91,1.65,3.7,3.7,0,0,1-1.45,1,5,5,0,0,1-1.95.36,5.12,5.12,0,0,1-2-.36,3.77,3.77,0,0,1-1.45-1,4.55,4.55,0,0,1-.91-1.65,8,8,0,0,1,0-4.4,4.55,4.55,0,0,1,.91-1.65,3.9,3.9,0,0,1,1.45-1,5.12,5.12,0,0,1,2-.36,5,5,0,0,1,1.95.36,3.82,3.82,0,0,1,1.45,1,4.55,4.55,0,0,1,.91,1.65,7.72,7.72,0,0,1,0,4.4m3.6-5.51a7.85,7.85,0,0,0-1.73-2.66,8,8,0,0,0-2.69-1.78,9.69,9.69,0,0,0-7,0A7.77,7.77,0,0,0,286.39,68a9.17,9.17,0,0,0,0,6.63,7.8,7.8,0,0,0,4.44,4.45,9.84,9.84,0,0,0,7,0,7.84,7.84,0,0,0,4.42-4.45,9.15,9.15,0,0,0,0-6.62M283.92,63.1h-3.83V70h-6.68V63.1h-3.83V79.54h3.83v-7h6.68v7h3.83ZM265.47,75.36a1.32,1.32,0,0,0-.29.19,6.66,6.66,0,0,1-.67.49,4.88,4.88,0,0,1-.7.32,3.9,3.9,0,0,1-.8.17,6.9,6.9,0,0,1-.95,0A4,4,0,0,1,259,75.21a5,5,0,0,1-.94-1.65,7,7,0,0,1-.34-2.24,6.74,6.74,0,0,1,.34-2.18,4.79,4.79,0,0,1,1-1.65,4,4,0,0,1,1.48-1,4.65,4.65,0,0,1,1.89-.37,5.23,5.23,0,0,1,1,.09,4.32,4.32,0,0,1,.78.22,3.93,3.93,0,0,1,.58.28l.44.28a4.09,4.09,0,0,0,.39.22.71.71,0,0,0,.38.09.8.8,0,0,0,.47-.12,2.07,2.07,0,0,0,.3-.29L268,65.11a6.12,6.12,0,0,0-1.06-.88,6.78,6.78,0,0,0-1.31-.69,8.69,8.69,0,0,0-1.52-.45,8.88,8.88,0,0,0-1.75-.17,9.49,9.49,0,0,0-3.48.62,8.14,8.14,0,0,0-2.72,1.74,8,8,0,0,0-1.76,2.66,8.81,8.81,0,0,0-.63,3.38,9.79,9.79,0,0,0,.55,3.34A7.73,7.73,0,0,0,256,77.32a7.07,7.07,0,0,0,2.51,1.76,8.36,8.36,0,0,0,3.36.64,8.65,8.65,0,0,0,3.53-.66,6.21,6.21,0,0,0,2.49-2l-1.51-1.59a.77.77,0,0,0-.26-.17.65.65,0,0,0-.27,0,.75.75,0,0,0-.33.07M242,63.1V79.54h10.58V76.61h-6.74V72.69H251V69.87h-5.16V66h6.74V63.1ZM230.82,66h1.54a3.26,3.26,0,0,1,2.18.61,2.1,2.1,0,0,1,.7,1.69,3.29,3.29,0,0,1-.15,1,2.26,2.26,0,0,1-.51.82,2.43,2.43,0,0,1-.9.54,3.94,3.94,0,0,1-1.32.2h-1.54Zm1,7.5a1.42,1.42,0,0,1,.68.13,1.07,1.07,0,0,1,.43.46l2.73,4.77a1.45,1.45,0,0,0,1.37.72h3.45L237,73.82a3,3,0,0,0-.58-.69,3.71,3.71,0,0,0-.72-.47,5.7,5.7,0,0,0,1.42-.78,5,5,0,0,0,1-1.08,4.31,4.31,0,0,0,.64-1.31A5.35,5.35,0,0,0,239,68,5.12,5.12,0,0,0,238.6,66a3.84,3.84,0,0,0-1.15-1.55,6,6,0,0,0-2-1,11.18,11.18,0,0,0-3-.37H227V79.54h3.81V73.46ZM214.26,63.1V79.54h10.58V76.61H218.1V72.69h5.16V69.87H218.1V66h6.74V63.1Zm-7.08,9.09a5.75,5.75,0,0,1-1.11,2,4.89,4.89,0,0,1-1.78,1.29,6.12,6.12,0,0,1-2.38.44h-3.12V63h3.12a6.12,6.12,0,0,1,2.38.44,4.89,4.89,0,0,1,1.78,1.29,5.75,5.75,0,0,1,1.11,2,9.75,9.75,0,0,1,0,5.39m4.4-6.71a9.34,9.34,0,0,0-2.12-3.17,9.67,9.67,0,0,0-3.28-2.1,11.71,11.71,0,0,0-4.27-.76h-7.8V79.54h7.8a11.71,11.71,0,0,0,4.27-.75,9.52,9.52,0,0,0,3.28-2.1,9.39,9.39,0,0,0,2.12-3.18,11.12,11.12,0,0,0,0-8"/><polygon class="cls-1" points="151.84 35.88 160.37 35.88 180.43 84.43 171.9 84.43 156.11 46.19 146.81 68.69 160.32 68.69 163.31 75.52 144 75.52 140.31 84.43 131.79 84.43 151.84 35.88"/><path class="cls-1" d="M41,60.24A16.62,16.62,0,1,1,24.36,43.62,16.62,16.62,0,0,1,41,60.24m7.74,0A24.36,24.36,0,1,0,24.36,84.6,24.37,24.37,0,0,0,48.72,60.24"/><polygon class="cls-1" points="82.22 35.88 90.75 35.88 90.75 84.43 82.22 84.43 62.58 50.57 62.58 84.43 54.05 84.43 54.05 35.88 62.58 35.88 82.22 69.73 82.22 35.88"/><path class="cls-1" d="M125.75,56.36c-.06-5.6-3.27-12-11.8-12h-7V71.2H98.44V35.87h14.08c13.8,0,21.33,9.28,21.33,20.49v7.58l-.33,4.1c-1.56,9.28-8.55,16.39-21,16.39H98.44V75.9h15.72l1.07-.05c7.34-.62,10.46-6.54,10.52-12.76ZM114.16,75.9h1.07a9.55,9.55,0,0,0-1.07,0"/><path class="cls-2" d="M63.45,90.81a40.94,40.94,0,0,0,54.64,0H107.88a35,35,0,0,1-34.22,0ZM108,29.58h10.16a40.94,40.94,0,0,0-54.84,0H73.51a34.95,34.95,0,0,1,34.52,0"/><path class="cls-2" d="M38.92,90.9a60.23,60.23,0,0,0,103.7,0h-7.88a53.6,53.6,0,0,1-87.94,0Zm95.76-61.41h7.89a60.24,60.24,0,0,0-103.6,0h7.9a53.59,53.59,0,0,1,87.81,0"/></g></g></svg>